<svg width="18" height="10" viewBox="0 0 18 10" fill="none" xmlns="http://www.w3.org/2000/svg">
<path d="M9.53061 9.03063L17.0306 1.53063C17.1003 1.46094 17.1556 1.37822 17.1933 1.28717C17.231 1.19613 17.2504 1.09855 17.2504 1C17.2504 0.901455 17.231 0.803874 17.1933 0.712829C17.1556 0.621784 17.1003 0.539059 17.0306 0.469376C16.9609 0.399693 16.8782 0.344418 16.7872 0.306706C16.6961 0.268994 16.5985 0.249584 16.5 0.249584C16.4014 0.249584 16.3039 0.268994 16.2128 0.306706C16.1218 0.344418 16.039 0.399693 15.9694 0.469376L8.99999 7.43969L2.03061 0.469376C1.88988 0.328645 1.69901 0.249584 1.49999 0.249584C1.30097 0.249584 1.1101 0.328645 0.969365 0.469376C0.828634 0.610106 0.749573 0.800978 0.749573 1C0.749573 1.19902 0.828634 1.3899 0.969365 1.53063L8.46936 9.03063C8.53902 9.10036 8.62174 9.15568 8.71278 9.19342C8.80383 9.23116 8.90143 9.25059 8.99999 9.25059C9.09855 9.25059 9.19615 9.23116 9.2872 9.19342C9.37824 9.15568 9.46096 9.10036 9.53061 9.03063Z" fill="#333434"/>
</svg>
